<svg width="29" height="19" viewBox="0 0 29 19" fill="none" xmlns="http://www.w3.org/2000/svg">
<path d="M27.689 6.13257L26.7606 7.69454L22.8256 7.888C22.8256 7.888 21.1174 9.07202 19.3735 8.97888C17.6277 8.88573 17.3684 15.6155 17.3684 15.6155C17.3684 15.6155 18.7796 16.3356 18.7796 17.1828H13.9538C13.9538 17.1828 13.0255 12.35 12.2456 11.6586C12.2456 11.6586 11.1689 13.1238 10.203 12.6026C10.203 12.6026 9.46068 14.9456 8.56992 15.2429C8.56992 15.2429 10.0921 15.8752 10.0921 16.5434H6.191V14.9706C6.191 14.9706 4.22704 16.0239 3.37385 16.0973C3.37385 16.0973 4.48819 16.5613 4.48819 17.2222H1.81592L1.11119 14.9706C1.11119 14.9706 3.11628 13.011 2.63334 11.3756C2.1504 9.74016 1.11119 9.29414 1.48323 7.47243C1.85527 5.65072 3.37743 1.85862 6.64353 2.08074C9.90963 2.30465 22.3838 2.97279 22.3838 2.97279C22.3838 2.97279 22.9776 2.00551 23.1636 1.89445C23.3497 1.78339 23.8326 3.38119 23.8326 3.38119C23.8326 3.38119 25.5408 4.12456 25.8377 4.979L27.689 6.13257Z" stroke="black" stroke-opacity="0.25" stroke-width="2" stroke-miterlimit="10" stroke-linecap="round" stroke-linejoin="round"/>
</svg>
