<svg width="33" height="33" viewBox="0 0 33 33" fill="none" xmlns="http://www.w3.org/2000/svg">
<path d="M16.5 16.5C14.9875 16.5 13.6927 15.9615 12.6156 14.8844C11.5385 13.8073 11 12.5125 11 11C11 9.4875 11.5385 8.19271 12.6156 7.11563C13.6927 6.03854 14.9875 5.5 16.5 5.5C18.0125 5.5 19.3073 6.03854 20.3844 7.11563C21.4615 8.19271 22 9.4875 22 11C22 12.5125 21.4615 13.8073 20.3844 14.8844C19.3073 15.9615 18.0125 16.5 16.5 16.5ZM5.5 27.5V23.65C5.5 22.8708 5.70075 22.1545 6.10225 21.5009C6.50283 20.8482 7.03542 20.35 7.7 20.0063C9.12083 19.2958 10.5646 18.7628 12.0312 18.4071C13.4979 18.0524 14.9875 17.875 16.5 17.875C18.0125 17.875 19.5021 18.0524 20.9688 18.4071C22.4354 18.7628 23.8792 19.2958 25.3 20.0063C25.9646 20.35 26.4972 20.8482 26.8978 21.5009C27.2992 22.1545 27.5 22.8708 27.5 23.65V27.5H5.5ZM8.25 24.75H24.75V23.65C24.75 23.3979 24.6872 23.1688 24.5616 22.9625C24.4351 22.7563 24.2687 22.5958 24.0625 22.4813C22.825 21.8625 21.576 21.3982 20.3156 21.0884C19.0552 20.7795 17.7833 20.625 16.5 20.625C15.2167 20.625 13.9448 20.7795 12.6844 21.0884C11.424 21.3982 10.175 21.8625 8.9375 22.4813C8.73125 22.5958 8.56533 22.7563 8.43975 22.9625C8.31325 23.1688 8.25 23.3979 8.25 23.65V24.75ZM16.5 13.75C17.2563 13.75 17.9039 13.4805 18.4429 12.9415C18.981 12.4034 19.25 11.7562 19.25 11C19.25 10.2438 18.981 9.59658 18.4429 9.0585C17.9039 8.5195 17.2563 8.25 16.5 8.25C15.7437 8.25 15.0966 8.5195 14.5585 9.0585C14.0195 9.59658 13.75 10.2438 13.75 11C13.75 11.7562 14.0195 12.4034 14.5585 12.9415C15.0966 13.4805 15.7437 13.75 16.5 13.75Z" fill="#272727"/>
</svg>
