<svg width="56" height="35" viewBox="0 0 56 35" fill="none" xmlns="http://www.w3.org/2000/svg">
<g clip-path="url(#clip0_103_1396)">
<path d="M17.6576 8.55586C18.9853 8.33486 19.2264 8.37384 21.3021 9.15582C21.6977 9.3046 21.6931 9.30325 22.0607 9.63478C22.8229 10.3213 23.4087 10.5884 24.678 10.82C25.9388 11.0512 26.1653 11.0991 26.5048 11.1938C26.936 11.318 27.3007 11.4774 27.7988 11.7622C28.0067 11.8836 28.2127 11.9978 28.2477 12.0192C28.2866 12.0396 28.3813 12.081 28.4606 12.1113C28.5859 12.1575 28.6143 12.1857 28.6519 12.298C28.6837 12.4041 28.8078 12.5422 29.2306 12.9407C29.5218 13.2209 29.9191 13.6184 30.1069 13.8238C30.2953 14.0316 30.4602 14.1972 30.4759 14.1931C30.6017 14.1604 31.5138 13.2135 31.9365 12.6763C32.2089 12.3358 32.3422 12.1384 33.0829 10.9844C33.5854 10.2052 33.7064 10.0898 34.3935 9.74566L34.713 9.58621L34.9354 9.60206C35.253 9.62874 36.1432 9.8878 36.5714 10.0815C36.9471 10.2507 37.203 10.3951 38.059 10.9098C38.3329 11.075 38.7085 11.2925 38.8939 11.3917L39.2269 11.5746L39.9646 11.4411L40.7028 11.3099L41.0222 11.4404C41.1962 11.5121 41.4827 11.6613 41.6627 11.7721C42.1041 12.0488 43.8119 13.2877 45.7672 14.752C47.4259 15.9959 50.3851 18.1398 50.853 18.4376C52.59 19.5468 53.6816 20.1603 54.8366 20.6785C55.4485 20.9489 55.8326 21.1668 55.855 21.2525C55.8829 21.3597 55.5137 21.3286 54.6322 21.1512C53.011 20.8256 52.157 20.641 52.0076 20.5833C51.7757 20.4987 50.585 19.8754 50.1285 19.6052C49.7023 19.355 48.4387 18.532 45.6424 16.6916C43.1444 15.0456 42.9839 14.945 42.3658 14.6507C42.1304 14.5365 42.0205 14.5015 41.9973 14.5254C41.9742 14.5492 41.9925 14.6843 42.0427 14.8772C42.1248 15.1762 42.1349 15.199 42.3109 15.3592C42.7674 15.7743 43.5567 16.3394 45.1328 17.3786C46.0185 17.9592 46.4329 18.2124 46.6828 18.3178C47.2318 18.5563 47.2616 18.5739 47.4713 18.7991C47.5871 18.9215 47.6783 19.03 47.6684 19.0402C47.6458 19.0664 46.4783 19.0804 46.2161 19.0571C45.907 19.0308 45.7914 18.9897 44.4384 18.4366C43.8184 18.1835 43.3081 17.9807 43.3015 17.9875C43.2909 17.9953 43.3736 18.2484 43.4784 18.5542C43.5865 18.8567 43.6685 19.1074 43.6619 19.1142C43.6547 19.1186 43.6178 19.1384 43.5731 19.1602C43.5055 19.1905 43.4691 19.1797 43.3261 19.0821C43.0661 18.9057 42.7804 18.7435 42.6317 18.6882C42.4004 18.606 42.2751 18.4631 41.8435 17.805C41.548 17.3632 41.4613 17.256 41.3296 17.2013C41.277 17.1769 41.175 17.0915 41.1037 17.0109C41.0363 16.9293 40.8621 16.728 40.7182 16.562C40.5742 16.3961 40.4042 16.1784 40.3397 16.0757C39.5392 14.8066 38.5024 13.8712 37.4998 13.5193C37.1945 13.4106 36.8928 13.3645 36.2653 13.3245C35.7232 13.2901 35.7063 13.2894 35.4232 13.3631C35.1755 13.4276 35.0961 13.461 34.8591 13.5989C34.4254 13.8517 34.1716 14.0703 33.4068 14.8415C33.0155 15.2409 32.639 15.6008 32.5783 15.642C32.5032 15.6921 32.472 15.7333 32.4899 15.754C32.5028 15.771 32.5907 15.8829 32.681 16.0043C32.9439 16.3529 33.39 16.7123 34.4353 17.4218C34.7354 17.6234 35.3841 18.0674 35.8756 18.4073C36.371 18.7463 36.873 19.0784 36.9955 19.1457C37.7154 19.5406 38.8017 19.9241 39.7327 20.114C40.8317 20.3366 42.5872 20.5815 44.1143 20.7231C44.6607 20.7741 45.4402 20.8661 45.8468 20.9282C46.2494 20.9912 46.6886 21.0498 46.821 21.0585C47.4877 21.1037 47.8441 21.2474 48.3507 21.6775L48.5327 21.8285L48.0088 21.7996C47.7237 21.7848 46.4811 21.7522 45.2527 21.7261C42.1635 21.6631 41.346 21.6191 40.4216 21.4706C39.9832 21.3991 38.5909 21.0978 38.2996 21.0109C37.758 20.8493 35.7995 20.0342 35.1922 19.7168C34.5414 19.3776 32.919 18.3861 32.2277 17.9074C30.7669 16.8916 30.1145 16.3367 28.651 14.8588C27.0412 13.2385 26.6807 12.9178 26.1726 12.6432C25.8797 12.4855 25.533 12.3952 25.2723 12.4097C25.0364 12.4228 24.6964 12.5036 24.7076 12.5465C24.7188 12.5894 25.2928 13.569 25.4692 13.8435C25.7266 14.252 25.9322 14.4934 26.1713 14.6702C26.2973 14.7671 26.7975 15.0438 27.276 15.2854C29.1185 16.2196 29.3943 16.392 29.92 16.9442C30.4232 17.4744 30.7318 17.9179 31.0344 18.5486C31.2914 19.0843 31.329 19.4382 31.1363 19.4883C30.8454 19.5641 30.7666 19.5032 30.2183 18.7839C29.994 18.4863 29.7307 18.1683 29.6353 18.0761C29.2411 17.6905 28.4143 17.2395 26.6468 16.4485C25.1687 15.7856 24.5146 15.4015 23.8976 14.8374C23.5623 14.533 23.013 13.9386 22.0869 12.8803C21.2141 11.8818 20.9357 11.6186 20.7369 11.5966C20.6462 11.5871 20.6429 11.5905 20.605 11.7835C20.5524 12.0489 20.3053 13.1482 20.2453 13.385L20.1982 13.5753L19.5447 13.9514C18.8694 14.3407 18.5284 14.5465 18.4557 14.606C18.4247 14.6319 18.4758 14.6669 18.6531 14.7352C18.7842 14.7875 18.9599 14.8817 19.0354 14.9459C19.2155 15.0898 19.4482 15.3547 19.4345 15.3989C19.4182 15.449 18.8402 15.7443 18.5488 15.8507C18.1091 16.016 17.0745 16.2344 14.7188 16.6671C14.1663 16.7702 13.6976 16.8566 13.6741 16.8627C13.6072 16.8801 13.6269 16.6817 13.6973 16.5973C13.848 16.4182 14.3706 16.0228 14.9035 15.6832L15.2414 15.4656L15.5422 14.9118L15.8398 14.3614L16.3211 14.114C16.9885 13.775 17.2958 13.6009 17.7134 13.3346L18.0731 13.1037L17.9602 12.299C17.8958 11.858 17.8349 11.495 17.8258 11.4923C17.7751 11.475 17.4663 11.7079 17.2782 11.9044C16.9907 12.203 16.8327 12.4348 16.4532 13.1057C16.2773 13.4134 16.1241 13.6796 16.1108 13.6932C16.0936 13.7079 15.715 13.8497 15.2616 14.0109C14.8076 14.1698 14.4026 14.3235 14.3598 14.3524C14.3163 14.379 14.0626 14.5976 13.7935 14.838C13.0267 15.5208 12.0623 16.2829 11.4613 16.6834C11.2214 16.8425 10.5108 17.2411 9.36166 17.858C7.3653 18.9295 7.06356 19.125 5.60967 20.2968C5.14152 20.6754 4.65186 21.0521 4.52272 21.1366C4.0128 21.4676 3.51658 21.6578 3.11083 21.6795C2.82075 21.694 2.2191 21.6243 2.21064 21.5756C2.20568 21.5566 2.40788 21.3819 2.66451 21.1905C2.91658 20.9977 3.42342 20.6064 3.7885 20.3156C5.57685 18.8966 6.06899 18.5294 7.72626 17.381C10.1087 15.7285 10.9074 15.1036 11.6014 14.3508C11.8692 14.0573 12.0801 13.771 12.6956 12.8454C13.375 11.8269 13.4216 11.7639 13.9514 11.2191C14.7059 10.4405 15.8233 9.47576 16.5563 8.96965C16.7916 8.80924 17.0234 8.66754 17.0712 8.65764C17.1229 8.64672 17.3873 8.59823 17.6576 8.55586Z" fill="#0D3D60"/>
</g>
<defs>
<clipPath id="clip0_103_1396">
<rect width="52" height="22" fill="white" transform="matrix(-0.967755 0.251894 0.251894 0.967755 50.3232 0)"/>
</clipPath>
</defs>
</svg>
