<svg width="1411" height="268" viewBox="0 0 1411 268" fill="none" xmlns="http://www.w3.org/2000/svg">
<path fill-rule="evenodd" clip-rule="evenodd" d="M-8.76514 267.724L61.4974 189.683L93.3976 173.048L149.3 200.083L202.074 209.434L242.539 240.469L330.29 197.793L345.215 180.855L420.042 127.724L459.686 114.951L495.74 133.379L530.513 139.255L580.107 180.303L712.888 65.1584L792.33 44.4963L852.079 6.28941L887.621 -0.027832L1001.07 119.338L1099.49 167.972L1182.21 234.317L1224.62 214.51L1250.06 213.048L1286.84 194.151L1332.74 187.558L1411 267.696H1363.2L1353.3 246.014L1329.51 191.007L1290.84 196.414L1276.99 214.924L1246.01 246.069L1225.19 218.4L1211.5 239.889L1185.65 237.517L1224.98 267.696H1107.43L1100.97 243.614L1162.41 245.71L1076.82 207.751L1026.97 141.296L1052.05 183.476L1062.61 267.696H1056.1L986.758 213.214L949.165 267.696H695.707L675.346 209.131L787.048 109.324L824.179 152.965L885.826 140.579L879.261 187.586L839.976 210.841L841.001 263.531L869.004 214.538L907.469 209.489L934.753 176.083L1002.71 193.903L876.594 118.345L875.466 49.6273L831.821 120.165L814.589 97.9032L858.541 14.2342L835.36 40.1929L794.792 50.5101L717.503 68.1928L679.346 173.489L590.056 189.765L689.706 267.669H496.51L459.122 236.938L447.839 182.786L502.972 204.248L459.583 121.296L425.94 131.283L400.296 192.386L351.112 192L292.236 257.793L248.796 243.42L286.03 267.669H172.379L123.452 240.965L93.5515 185.655L69.3442 192.855L1.44088 267.696H-8.76514V267.724ZM996.553 267.724L992.451 245.71L967.884 267.724H996.553ZM1327.92 267.724L1321.61 226.289L1300.37 266.648L1279.24 232.027L1268.78 267.751H1327.97L1327.92 267.724ZM99.8084 267.724L97.2441 246.869L93.0899 267.724H99.8084ZM77.4475 267.724L74.3703 211.283L49.1374 267.724H77.4475ZM24.1608 267.724L30.7255 247.641L14.5702 267.724H24.2121H24.1608ZM478.918 267.724L438.043 244.772L457.942 267.724H478.918ZM445.275 267.724L416.452 232.276L406.04 267.724H445.275ZM370.653 267.724L392.808 239.724L358.446 204.358L296.851 267.696H370.653V267.724Z" fill="#0D3D60" fill-opacity="0.5"/>
</svg>
